# xmcd CD database file
#
# Track frame offsets:
#	150
#	15950
#	29555
#	49072
#	63415
#	85430
#	100929
#	118472
#	136835
#	148225
#
# Disc length: 2122 seconds
#
# Revision: 1
# Processed by: cddbd v1.5.2PL0 Copyright (c) Steve Scherf et al.
# Submitted via: CDex 1.70beta2
#
DISCID=8e08480a
DTITLE=Jimmy Lee and Black Horse Band -  
DYEAR=1997
DGENRE=Country
TTITLE0=Hello Cowboy
TTITLE1=Hellbent
TTITLE2=I Love to Rodeo
TTITLE3=tears on Her Makeup
TTITLE4=Ain't No Sunshine
TTITLE5=Separate Ways
TTITLE6=Country Singers Dream
TTITLE7=Can't You See
TTITLE8=Wil Side of Life
TTITLE9=Bucket's Goota Hole
EXTD=YEAR: 1997
EXTT0=
EXTT1=
EXTT2=
EXTT3=
EXTT4=
EXTT5=
EXTT6=
EXTT7=
EXTT8=
EXTT9=
PLAYORDER=
